<svg width="1600" height="1000" viewBox="0 0 1600 1000" fill="none" xmlns="http://www.w3.org/2000/svg">
<path d="M0 92.38C0 64.0736 0 49.9203 4.53489 38.7242C10.8348 23.1705 23.1705 10.8348 38.7242 4.53489C49.9203 0 64.0736 0 92.38 0H1507.62C1535.93 0 1550.08 0 1561.28 4.53489C1576.83 10.8348 1589.17 23.1705 1595.47 38.7242C1600 49.9203 1600 64.0736 1600 92.38V907.62C1600 935.926 1600 950.08 1595.47 961.276C1589.17 976.829 1576.83 989.165 1561.28 995.465C1550.08 1000 1535.93 1000 1507.62 1000H92.38C64.0736 1000 49.9203 1000 38.7242 995.465C23.1705 989.165 10.8348 976.829 4.53489 961.276C0 950.08 0 935.926 0 907.62V92.38Z" fill="#0A0A15"/>
<path d="M732.944 395.589C810.732 395.635 848.113 439.197 855.235 498.426H650.139C649.319 505.49 648.917 512.835 648.917 520.392C648.918 579.842 673.695 626.18 732.943 626.224C786.069 626.185 811.479 588.924 816.163 538.363H855.667C849.765 599.619 812.472 645.149 732.944 645.195C645.814 645.144 609.377 590.499 609.376 520.393C609.377 450.287 645.814 395.64 732.944 395.589ZM732.943 414.559C690.007 414.59 665.175 438.935 654.755 474.963H811.131C800.711 438.935 775.879 414.59 732.943 414.559Z" fill="#51B1FF"/>
<path d="M479.384 334.609C546.465 341.601 579.239 393.403 585.859 462.098H546.457C541.586 405.674 520.782 362.872 479.384 354.307V624.689C521.991 615.873 542.784 570.793 546.844 511.92H586.292C580.795 583.08 548.077 637.226 479.384 644.386V662L446.268 661.999V644.223C371.588 635.637 340.001 570.93 340 489.499C340 408.068 371.588 343.36 446.268 334.774V317H479.384V334.609ZM446.268 354.63C399.456 365.371 379.541 420.626 379.541 489.499C379.541 558.372 399.456 613.625 446.268 624.366V354.63Z" fill="#51B1FF"/>
<path d="M911.869 442.222C951.353 386.342 1116.66 318.424 1100.19 643.221H1068.01C1068.01 341.808 957.732 407.616 911.869 469.628V643.218H878.753V397.072H911.869V442.222Z" fill="#51B1FF"/>
<path d="M1145.51 335.287C1145.51 348.197 1145.45 360.722 1145.39 372.853H1249.89V391.635H1145.3C1144.59 541.036 1146.8 625.423 1249.89 625.423V644.205C1109.27 644.205 1117.58 572.042 1117.58 335.287H1145.51Z" fill="#51B1FF"/>
</svg>
