<svg width="2903" height="1871" viewBox="0 0 2903 1871" fill="none" xmlns="http://www.w3.org/2000/svg">
<rect width="2903" height="1871" rx="134" fill="#0A0A15"/>
<path d="M1332 715C1489.38 715.092 1565.01 803.227 1579.42 923.06H1164.47C1162.81 937.353 1162 952.212 1162 967.5C1162 1087.78 1212.13 1181.53 1332 1181.62C1439.48 1181.54 1490.89 1106.15 1500.37 1003.86H1580.29C1568.35 1127.79 1492.9 1219.91 1332 1220C1155.72 1219.9 1082 1109.34 1082 967.5C1082 825.661 1155.72 715.103 1332 715ZM1332 753.38C1245.13 753.443 1194.89 802.698 1173.81 875.59H1490.19C1469.11 802.698 1418.87 753.443 1332 753.38Z" fill="#51B1FF"/>
<path d="M819 591.629C954.718 605.775 1021.03 710.579 1034.42 849.56H954.703C944.847 735.404 902.757 648.808 819 631.479V1178.52C905.205 1160.68 947.273 1069.47 955.485 950.36H1035.29C1024.17 1094.33 957.98 1203.88 819 1218.37V1254H752V1218.04C600.907 1200.67 537.001 1069.75 537 905C537.001 740.249 600.907 609.329 752 591.959V556H819V591.629ZM752 632.134C657.29 653.864 617.001 765.656 617 905C617.001 1044.34 657.29 1156.14 752 1177.87V632.134Z" fill="#51B1FF"/>
<path d="M1694 809.341C1773.88 696.286 2108.33 558.876 2075 1216H2009.91C2009.91 606.188 1786.79 739.325 1694 864.787V1216H1627V718H1694V809.341Z" fill="#51B1FF"/>
<path d="M2166.69 593C2166.69 619.119 2166.58 644.459 2166.46 669H2377.88V707H2166.27C2164.84 1009.27 2169.32 1180 2377.88 1180V1218C2093.38 1218 2110.19 1072 2110.19 593H2166.69Z" fill="#51B1FF"/>
</svg>
