<svg width="1920" height="1080" viewBox="0 0 1920 1080" fill="none" xmlns="http://www.w3.org/2000/svg">
<rect width="1920" height="1080" rx="86" fill="black"/>
<rect x="745.982" y="475" width="222" height="31" fill="white"/>
<rect x="1258.98" y="374" width="174" height="31" fill="white"/>
<path d="M863.905 387.604C935.081 387.604 994.398 438.37 1007.63 505.669H964.082C951.602 461.929 911.336 429.904 863.59 429.904C805.881 429.904 759.099 476.687 759.099 534.396C759.099 592.104 805.881 638.887 863.59 638.887C911.565 638.887 951.987 606.555 964.259 562.492H1007.63C994.398 629.791 935.081 680.557 863.905 680.558C783.008 680.558 717.429 614.978 717.429 534.081C717.429 453.184 783.008 387.604 863.905 387.604Z" fill="white"/>
<rect x="1007.98" y="404" width="42" height="261" fill="white"/>
<path d="M573.477 387.604C644.652 387.604 703.969 438.37 717.197 505.669H673.653C661.173 461.929 620.907 429.904 573.161 429.904C515.452 429.904 468.67 476.687 468.67 534.396C468.67 592.104 515.452 638.887 573.161 638.887C621.136 638.887 661.558 606.555 673.83 562.492H717.197C703.969 629.791 644.652 680.557 573.477 680.558C492.58 680.558 427 614.978 427 534.081C427 453.184 492.58 387.604 573.477 387.604Z" fill="white"/>
<rect x="1296.98" y="303" width="42" height="231" fill="white"/>
<rect x="1258.98" y="534" width="42" height="131" fill="white"/>
<path d="M1154.33 387.604C1235.23 387.604 1300.81 453.184 1300.81 534.081C1300.81 574.222 1284.66 610.589 1258.51 637.047V534.08H1258.51C1258.34 476.517 1211.62 429.905 1154.02 429.905C1096.42 429.905 1049.7 476.517 1049.53 534.08H1049.53V636.408C1023.75 610.006 1007.86 573.899 1007.86 534.081C1007.86 453.184 1073.44 387.604 1154.33 387.604Z" fill="white"/>
<path d="M1338.69 534.08H1338.7C1338.87 591.644 1385.58 638.255 1443.18 638.255C1445.31 638.255 1447.43 638.19 1449.53 638.064L1457.09 679.934C1452.62 680.345 1448.08 680.557 1443.5 680.557C1362.6 680.557 1297.02 614.977 1297.02 534.08C1297.02 494.262 1312.91 458.153 1338.69 431.75V534.08ZM1433.4 404.019H1376.06C1393.43 394.996 1412.83 389.348 1433.4 387.946V404.019Z" fill="white"/>
<path d="M592.67 697.702H551V661.285H592.67V697.702ZM592.67 416.774H551V374H592.67V416.774Z" fill="white"/>
</svg>
